<svg xmlns="http://www.w3.org/2000/svg" width="" height="" viewBox="0 0 29.243 33.271">
  <g id="" data-name="グループ 103" transform="translate(-153.82 -539.434)">
    <path id="" data-name="パス 14" d="M15.12,28.019l-.492,4.25a31.905,31.905,0,0,0,10.366-8.086A14.912,14.912,0,0,0,28.22,14.129,13.614,13.614,0,1,0,1.009,15.1,13.8,13.8,0,0,0,15.12,28.019Z" transform="translate(153.821 539.435)" fill="none" stroke="#373778" stroke-linecap="round" stroke-linejoin="round" stroke-width="2"/>
    <path id="" data-name="パス 15" d="M7.033,10.842a1.3,1.3,0,1,1-1.3,1.3,1.3,1.3,0,0,1,1.3-1.3" transform="translate(155.222 542.346)" fill="#373778"/>
    <path id="" data-name="パス 16" d="M11.783,10.652a1.3,1.3,0,1,1-1.3,1.3,1.3,1.3,0,0,1,1.3-1.3" transform="translate(156.626 542.29)" fill="#373778"/>
    <path id="" data-name="パス 17" d="M16.593,10.462a1.3,1.3,0,1,1-1.3,1.3,1.3,1.3,0,0,1,1.3-1.3" transform="translate(158.049 542.234)" fill="#373778"/>
  </g>
</svg>
