<svg xmlns="http://www.w3.org/2000/svg" width="" height="" viewBox="0 0 15 12.179">
  <g id="icon_fax" transform="translate(0 -48.133)">
    <path id="" data-name="パス 25" d="M104.8,367.926H104.8v2.579a.467.467,0,0,0,.426.5h7.424a.467.467,0,0,0,.426-.5v-2.579H104.8Z" transform="translate(-101.435 -310.692)" fill="#fff"/>
    <path id="" data-name="パス 27" d="M12.652,52.734v-4.6H2.348v4.6H0v5.526H2.352V56.419h10.3v1.841H15V52.734Zm-9.37,1.732a.586.586,0,1,1-.586-.576A.581.581,0,0,1,3.281,54.467Zm0-1.826V49.054h8.43v3.587H3.285Z" transform="translate(0 0)" fill="#fff"/>
  </g>
</svg>
