<svg xmlns="http://www.w3.org/2000/svg" width="" height="" viewBox="0 0 13.001 13.025">
  <path id="" data-name="Icon feather-phone" d="M15.167,12v1.81a1.207,1.207,0,0,1-1.315,1.207,11.94,11.94,0,0,1-5.207-1.852,11.765,11.765,0,0,1-3.62-3.62A11.94,11.94,0,0,1,3.173,4.315,1.207,1.207,0,0,1,4.373,3h1.81A1.207,1.207,0,0,1,7.39,4.038a7.747,7.747,0,0,0,.422,1.7,1.207,1.207,0,0,1-.272,1.273l-.766.766a9.654,9.654,0,0,0,3.62,3.62l.766-.766a1.207,1.207,0,0,1,1.273-.272,7.747,7.747,0,0,0,1.7.422A1.207,1.207,0,0,1,15.167,12Z" transform="translate(-2.667 -2.5)" fill="#333" stroke="#333" stroke-linecap="round" stroke-linejoin="round" stroke-width="1"/>
</svg>
