<svg xmlns="http://www.w3.org/2000/svg" width="" height="" viewBox="0 0 14 14">
  <g id="icon_link" transform="translate(0.001 -0.003)">
    <path id="" data-name="パス 35" d="M205.67,3.123a3.854,3.854,0,0,0-6.512-1.991l-1.827,1.827a.944.944,0,0,0,1.335,1.335l1.827-1.828a1.969,1.969,0,1,1,2.784,2.785L201.45,7.078a.944.944,0,0,0,1.334,1.335l1.827-1.828a3.852,3.852,0,0,0,1.059-3.462Z" transform="translate(-191.742)" fill="#333"/>
    <path id="" data-name="パス 36" d="M7.075,201.474,5.247,203.3a1.967,1.967,0,0,1-1.769.541,1.96,1.96,0,0,1-1.015-.541,1.967,1.967,0,0,1-.433-.651,1.965,1.965,0,0,1,.433-2.134L4.29,198.69a.943.943,0,0,0-1.335-1.334l-1.827,1.827a3.856,3.856,0,1,0,5.453,5.453l1.827-1.828a.943.943,0,0,0-1.334-1.334Z" transform="translate(0 -191.762)" fill="#333"/>
    <path id="" data-name="パス 37" d="M164.575,159.835a.944.944,0,0,0-1.334,0l-3.434,3.434a.943.943,0,0,0,1.335,1.334l3.434-3.434A.942.942,0,0,0,164.575,159.835Z" transform="translate(-155.192 -155.216)" fill="#333"/>
  </g>
</svg>
