<svg xmlns="http://www.w3.org/2000/svg" width="" height="" viewBox="0 0 25.031 25.081">
  <path id="" data-name="Icon feather-phone" d="M28.2,21.778v3.776a2.517,2.517,0,0,1-2.744,2.517,24.907,24.907,0,0,1-10.861-3.864,24.542,24.542,0,0,1-7.551-7.551A24.907,24.907,0,0,1,3.178,5.744,2.517,2.517,0,0,1,5.683,3H9.458a2.517,2.517,0,0,1,2.517,2.165A16.16,16.16,0,0,0,12.856,8.7a2.517,2.517,0,0,1-.566,2.656l-1.6,1.6a20.137,20.137,0,0,0,7.551,7.551l1.6-1.6a2.517,2.517,0,0,1,2.656-.566,16.16,16.16,0,0,0,3.537.881A2.517,2.517,0,0,1,28.2,21.778Z" transform="translate(-3.168 -3)" fill="#373582"/>
</svg>
