<svg xmlns="http://www.w3.org/2000/svg" width="" height="" viewBox="0 0 16.501 16.531">
  <path id="Icon_feather-phone" data-name="Icon feather-phone" d="M18.167,14.253v2.263a1.508,1.508,0,0,1-1.644,1.508,14.926,14.926,0,0,1-6.509-2.315,14.707,14.707,0,0,1-4.525-4.525A14.926,14.926,0,0,1,3.174,4.644,1.508,1.508,0,0,1,4.675,3H6.937A1.508,1.508,0,0,1,8.446,4.3a9.684,9.684,0,0,0,.528,2.119,1.508,1.508,0,0,1-.339,1.591l-.958.958A12.067,12.067,0,0,0,12.2,13.491l.958-.958a1.508,1.508,0,0,1,1.591-.339,9.684,9.684,0,0,0,2.119.528,1.508,1.508,0,0,1,1.3,1.531Z" transform="translate(-2.417 -2.25)" fill="none" stroke="#373582" stroke-linecap="round" stroke-linejoin="round" stroke-width="1.5"/>
</svg>
